<svg width="22" height="28" viewBox="0 0 22 28" fill="none" xmlns="http://www.w3.org/2000/svg">
<path d="M11 16C16.5228 16 21 14.2091 21 12C21 9.79086 16.5228 8 11 8C5.47715 8 1 9.79086 1 12C1 14.2091 5.47715 16 11 16Z" stroke="#03314B" stroke-width="2" stroke-miterlimit="10" stroke-linecap="round" stroke-linejoin="round"/>
<path d="M21 12L17 25.5C13.2 27.5 8.8 27.5 5 25.5L1 12" stroke="#03314B" stroke-width="2" stroke-miterlimit="10" stroke-linecap="round" stroke-linejoin="round"/>
<path d="M1 12C1 6.5 5.5 2 11 2C16.5 2 21 6.5 21 12" stroke="#03314B" stroke-width="2" stroke-miterlimit="10" stroke-linecap="round" stroke-linejoin="round"/>
<path d="M13 3H9C8.5 3 8 2.6 8 2C8 1.5 8.4 1 9 1H13C13.5 1 14 1.4 14 2C14 2.6 13.6 3 13 3Z" stroke="#03314B" stroke-width="2" stroke-miterlimit="10" stroke-linecap="round" stroke-linejoin="round"/>
</svg>
