<svg width="18" height="20" viewBox="0 0 18 20" fill="none" xmlns="http://www.w3.org/2000/svg">
<path d="M5.3437 10.7C2.4581 12 0.3656 14.7 0 18C0 19.1 0.8329 20 1.9375 20H15.9375C17.0425 20 17.8755 19.1 17.8755 18C17.5095 14.7 15.4165 12 12.5315 10.7C11.8825 12 10.5205 13 8.9375 13C7.3545 13 5.9922 12 5.3437 10.7Z" fill="#03314B"/>
<path d="M13.9375 5C13.9375 6.32608 13.4107 7.59785 12.473 8.53553C11.5354 9.47322 10.2636 10 8.9375 10C7.61142 10 6.33965 9.47322 5.40197 8.53553C4.46428 7.59785 3.9375 6.32608 3.9375 5C3.9375 3.67392 4.46428 2.40215 5.40197 1.46447C6.33965 0.526784 7.61142 0 8.9375 0C10.2636 0 11.5354 0.526784 12.473 1.46447C13.4107 2.40215 13.9375 3.67392 13.9375 5Z" fill="#03314B"/>
<path d="M8.9375 9C7.6605 9 6.4432 9.269 5.3437 9.75C2.4581 11.012 0.3656 13.747 0 17C0 18.105 0.8329 19 1.9375 19H15.9375C17.0425 19 17.8755 18.105 17.8755 17C17.5095 13.747 15.4165 11.012 12.5315 9.75C11.4315 9.269 10.2145 9 8.9375 9Z" fill="#03314B"/>
</svg>
